<svg id="Layer_1" data-name="Layer 1" xmlns="http://www.w3.org/2000/svg" viewBox="0 0 205.62 115.13"><defs><style>.cls-1{fill:#e0bc58;}.cls-2{fill:#c1c1c1;}.cls-3{fill:#adaca8;}.cls-4{fill:#4c4c4c;}.cls-5{fill:#9d9d9e;}.cls-6{fill:#0c8708;stroke:#0c8708;stroke-miterlimit:10;stroke-width:4px;}.cls-7{fill:#848484;}</style></defs><title>Artboard 6</title><path d="M41,114.61a41,41,0,1,1,41-41A41.06,41.06,0,0,1,41,114.61Zm0-80.46A39.44,39.44,0,1,0,80.46,73.59,39.48,39.48,0,0,0,41,34.15Z"/><path class="cls-1" d="M41,113A39.44,39.44,0,1,1,80.46,73.59,39.48,39.48,0,0,1,41,113Zm0-76.78A37.34,37.34,0,1,0,78.36,73.59,37.38,37.38,0,0,0,41,36.25Z"/><path class="cls-2" d="M41,111.72A38.13,38.13,0,1,1,79.15,73.59,38.18,38.18,0,0,1,41,111.72Zm0-74.15a36,36,0,1,0,36,36A36.06,36.06,0,0,0,41,37.57Z"/><rect class="cls-2" x="23.38" y="55.18" width="36.32" height="1.05" transform="translate(-15.9 94.82) rotate(-87.54)"/><rect class="cls-2" x="36.3" y="37.96" width="1.05" height="36.32" transform="translate(-11.28 9.31) rotate(-12.51)"/><rect class="cls-2" x="31.84" y="39.59" width="1.05" height="36.32" transform="translate(-23.01 21.48) rotate(-27.51)"/><rect class="cls-2" x="27.96" y="42.31" width="1.05" height="36.32" transform="translate(-33.37 35.14) rotate(-42.51)"/><rect class="cls-2" x="24.91" y="45.94" width="1.05" height="36.32" transform="translate(-42.29 51.12) rotate(-57.51)"/><rect class="cls-2" x="22.91" y="50.23" width="1.05" height="36.32" transform="translate(-48.84 70.19) rotate(-72.51)"/><rect class="cls-2" x="22.09" y="54.9" width="1.05" height="36.32" transform="matrix(0.04, -1, 1, 0.04, -51.36, 92.48)"/><rect class="cls-2" x="4.87" y="77.26" width="36.32" height="1.05" transform="translate(-16.31 6.84) rotate(-12.52)"/><rect class="cls-2" x="6.49" y="81.71" width="36.32" height="1.05" transform="translate(-35.21 20.69) rotate(-27.52)"/><rect class="cls-2" x="9.21" y="85.6" width="36.32" height="1.05" transform="translate(-51 41.13) rotate(-42.51)"/><rect class="cls-2" x="12.84" y="88.64" width="36.32" height="1.05" transform="translate(-60.87 67.44) rotate(-57.52)"/><rect class="cls-2" x="17.14" y="90.65" width="36.32" height="1.05" transform="translate(-62.27 97.43) rotate(-72.5)"/><rect class="cls-2" x="21.81" y="91.47" width="36.32" height="1.05" transform="translate(-53.66 127.97) rotate(-87.54)"/><rect class="cls-2" x="44.16" y="73.42" width="1.05" height="36.32" transform="translate(-18.78 11.86) rotate(-12.51)"/><rect class="cls-2" x="48.62" y="71.8" width="1.05" height="36.32" transform="translate(-36 32.87) rotate(-27.51)"/><rect class="cls-2" x="52.5" y="69.08" width="1.05" height="36.32" transform="translate(-45.01 58.76) rotate(-42.51)"/><rect class="cls-2" x="55.55" y="65.45" width="1.05" height="36.32" transform="translate(-44.57 86) rotate(-57.51)"/><rect class="cls-2" x="57.55" y="61.15" width="1.05" height="36.32" transform="translate(-35.02 110.87) rotate(-72.51)"/><rect class="cls-2" x="58.37" y="56.48" width="1.05" height="36.32" transform="translate(-18.23 130.24) rotate(-87.51)"/><rect class="cls-2" x="40.32" y="69.39" width="36.32" height="1.05" transform="translate(-13.76 14.34) rotate(-12.52)"/><rect class="cls-2" x="38.7" y="64.94" width="36.32" height="1.05" transform="translate(-23.81 33.68) rotate(-27.52)"/><rect class="cls-2" x="35.98" y="61.05" width="36.32" height="1.05" transform="translate(-27.38 52.77) rotate(-42.51)"/><rect class="cls-2" x="32.35" y="58.01" width="36.32" height="1.05" transform="translate(-25.99 69.71) rotate(-57.52)"/><rect class="cls-2" x="28.05" y="56.01" width="36.32" height="1.05" transform="translate(-21.6 83.61) rotate(-72.5)"/><path d="M164.6,115.13a41,41,0,1,1,41-41A41.06,41.06,0,0,1,164.6,115.13Zm0-80.46A39.45,39.45,0,1,0,204,74.12,39.49,39.49,0,0,0,164.6,34.67Z"/><path class="cls-1" d="M164.6,113.56A39.45,39.45,0,1,1,204,74.12,39.49,39.49,0,0,1,164.6,113.56Zm0-76.78a37.34,37.34,0,1,0,37.34,37.34A37.38,37.38,0,0,0,164.6,36.78Z"/><path class="cls-2" d="M164.6,112.24a38.13,38.13,0,1,1,38.13-38.12A38.16,38.16,0,0,1,164.6,112.24Zm0-74.15a36,36,0,1,0,36,36A36.06,36.06,0,0,0,164.6,38.09Z"/><rect class="cls-2" x="146.97" y="55.71" width="36.32" height="1.05" transform="translate(101.85 218.79) rotate(-87.54)"/><rect class="cls-2" x="159.88" y="38.49" width="1.05" height="36.32" transform="translate(-8.46 36.09) rotate(-12.51)"/><rect class="cls-2" x="155.43" y="40.11" width="1.05" height="36.32" transform="translate(-9.28 78.62) rotate(-27.51)"/><rect class="cls-2" x="151.54" y="42.83" width="1.05" height="36.32" transform="translate(-1.24 118.79) rotate(-42.51)"/><rect class="cls-2" x="148.5" y="46.46" width="1.05" height="36.32" transform="matrix(0.54, -0.84, 0.84, 0.54, 14.47, 155.61)"/><rect class="cls-2" x="146.49" y="50.76" width="1.05" height="36.32" transform="translate(37.1 188.43) rotate(-72.51)"/><rect class="cls-2" x="145.67" y="55.43" width="1.05" height="36.32" transform="translate(66.33 216.45) rotate(-87.51)"/><rect class="cls-2" x="128.45" y="77.79" width="36.32" height="1.05" transform="matrix(0.98, -0.22, 0.22, 0.98, -13.49, 33.64)"/><rect class="cls-2" x="130.07" y="82.24" width="36.32" height="1.05" transform="translate(-21.47 77.85) rotate(-27.52)"/><rect class="cls-2" x="132.79" y="86.12" width="36.32" height="1.05" transform="translate(-18.88 124.77) rotate(-42.51)"/><rect class="cls-2" x="136.42" y="89.17" width="36.32" height="1.05" transform="translate(-4.09 171.93) rotate(-57.52)"/><rect class="cls-2" x="140.72" y="91.17" width="36.32" height="1.05" transform="translate(23.66 215.66) rotate(-72.5)"/><rect class="cls-2" x="145.39" y="92" width="36.32" height="1.05" transform="translate(64.09 251.95) rotate(-87.54)"/><rect class="cls-2" x="167.75" y="73.95" width="1.05" height="36.32" transform="translate(-15.96 38.64) rotate(-12.51)"/><rect class="cls-2" x="172.2" y="72.32" width="1.05" height="36.32" transform="matrix(0.89, -0.46, 0.46, 0.89, -22.26, 90.02)"/><rect class="cls-2" x="176.08" y="69.6" width="1.05" height="36.32" transform="translate(-12.88 142.41) rotate(-42.51)"/><rect class="cls-2" x="179.13" y="65.97" width="1.05" height="36.32" transform="translate(12.19 190.48) rotate(-57.51)"/><rect class="cls-2" x="181.13" y="61.68" width="1.05" height="36.32" transform="translate(50.92 229.11) rotate(-72.51)"/><rect class="cls-2" x="181.96" y="57.01" width="1.05" height="36.32" transform="translate(99.46 254.21) rotate(-87.51)"/><rect class="cls-2" x="163.91" y="69.92" width="36.32" height="1.05" transform="translate(-10.94 41.13) rotate(-12.52)"/><rect class="cls-2" x="162.29" y="65.46" width="36.32" height="1.05" transform="translate(-10.08 90.83) rotate(-27.52)"/><rect class="cls-2" x="159.57" y="61.58" width="36.32" height="1.05" transform="translate(4.74 136.41) rotate(-42.51)"/><rect class="cls-2" x="155.93" y="58.53" width="36.32" height="1.05" transform="translate(30.78 174.21) rotate(-57.52)"/><rect class="cls-2" x="151.64" y="56.53" width="36.32" height="1.05" transform="translate(64.33 201.84) rotate(-72.5)"/><circle class="cls-3" cx="164.47" cy="74.51" r="5.65"/><path class="cls-4" d="M95.74,96.73h-.07L87,95.54l-.1,0L40.14,79.37l-.07,0-3.14-1.65a.57.57,0,0,1-.26-.29L35.47,74a.49.49,0,0,1,0-.41l1.89-3.74a.51.51,0,0,1,.31-.26l3.09-1a.62.62,0,0,1,.23,0l54.85,7a.46.46,0,0,1,.24.1l4.36,3.15a.58.58,0,0,1,.18.23l2.21,5.27a.5.5,0,0,1,0,.32l-1.72,7.41a.57.57,0,0,1-.17.28l-4.91,4.22A.52.52,0,0,1,95.74,96.73Zm-8.51-2.22,8.35,1.15,4.59-4,1.65-7.08-2.09-5-4.13-3L41,69.64l-2.78.89-1.69,3.34,1.06,3,2.93,1.54Z"/><circle class="cls-5" cx="40.32" cy="73.83" r="5.48"/><path class="cls-6" d="M163.28,74.71,137.79,22.56a1.58,1.58,0,0,0-2-.76L83.32,44.32a1.58,1.58,0,0,1-2.07-.83h0a1.58,1.58,0,0,1,.83-2.07l55.18-23.7a1.57,1.57,0,0,1,2,.75l26.82,54.85a1.58,1.58,0,0,1-.73,2.11h0A1.58,1.58,0,0,1,163.28,74.71Z"/><rect class="cls-6" x="80.47" y="56.26" width="75.63" height="3.16" rx="1.58" transform="translate(-2.2 110.95) rotate(-49.85)"/><path class="cls-6" d="M93.89,88.31a1.55,1.55,0,0,1-.37,0L40.38,75.39a1.59,1.59,0,0,1-1-2.35L71.15,19.8a1.61,1.61,0,0,0,.15-1.27l-.88-2.86a1.57,1.57,0,0,1,1-2h0a1.58,1.58,0,0,1,2,1.05l22,71.52a1.57,1.57,0,0,1-1.51,2Zm-48.6-15L88.88,83.9a1.58,1.58,0,0,0,1.88-2l-17-55.23a1.58,1.58,0,0,0-2.87-.35L44.3,71A1.58,1.58,0,0,0,45.29,73.33Z"/><circle class="cls-7" cx="92.95" cy="86.08" r="11.31"/><circle class="cls-5" cx="92.95" cy="86.08" r="8.94"/><path d="M106.92,93.22S96,86.21,95.64,86a2.42,2.42,0,0,0-3.35.86c-.46,1.07.29,2.43,1.67,3l12.12,5.24a1.23,1.23,0,0,0,1.67-.43C108,94.19,107.49,93.56,106.92,93.22Z"/><rect class="cls-6" x="132.99" y="4.7" width="3.16" height="15.22" transform="translate(8.09 59.88) rotate(-25.84)"/><path d="M132.65,4.75,116.45,9.5a2.28,2.28,0,0,1-2.65-1.77,2.26,2.26,0,0,1,1.28-2.91L131.28.07a2.26,2.26,0,0,1,2.65,1.76A2.27,2.27,0,0,1,132.65,4.75Z"/><path d="M131.77,0a1.66,1.66,0,0,0-.49.07l-16.2,4.75a2.26,2.26,0,0,0-1.28,2.91A2.39,2.39,0,0,0,116,9.57a2.07,2.07,0,0,0,.49-.07l16.2-4.75a2.27,2.27,0,0,0,1.28-2.92A2.38,2.38,0,0,0,131.77,0Z"/><rect class="cls-7" x="101.58" y="93.6" width="11.67" height="2.85" transform="translate(-11.41 14.72) rotate(-7.45)"/><path d="M83.9,9.51S61.64,4.83,61,4.76c-2.57-.27-4.74,2.13-4.74,4.75A4.74,4.74,0,0,0,61,14.25H83.9a2.38,2.38,0,0,0,2.38-2.37A2.66,2.66,0,0,0,83.9,9.51Z"/></svg>
