<svg id="Layer_1" data-name="Layer 1" xmlns="http://www.w3.org/2000/svg" viewBox="0 0 391 211.91"><defs><style>.cls-1,.cls-10,.cls-2,.cls-3,.cls-4,.cls-6,.cls-8{fill:none;}.cls-1,.cls-10{stroke:#000;}.cls-1,.cls-10,.cls-2,.cls-3,.cls-4{stroke-miterlimit:10;}.cls-1{stroke-width:3px;}.cls-2{stroke:#e0bc58;}.cls-2,.cls-3{stroke-width:4px;}.cls-3,.cls-4{stroke:#c1c1c1;}.cls-4,.cls-6{stroke-width:2px;}.cls-5{fill:#adaca8;}.cls-6{stroke:#4c4c4c;}.cls-10,.cls-6{stroke-linecap:round;}.cls-6,.cls-8{stroke-linejoin:round;}.cls-7{fill:#9d9d9e;}.cls-8{stroke:#edcc2b;}.cls-10,.cls-8{stroke-width:6px;}.cls-9{fill:#848484;}</style></defs><title>Artboard 3</title><circle class="cls-1" cx="78" cy="132.91" r="76.5"/><circle class="cls-2" cx="78" cy="132.91" r="73"/><circle class="cls-3" cx="78" cy="132.91" r="70.5"/><line class="cls-4" x1="77.5" y1="133.41" x2="80.5" y2="64.41"/><line class="cls-4" x1="77.5" y1="133.41" x2="62.54" y2="65.99"/><line class="cls-4" x1="77.5" y1="133.41" x2="45.6" y2="72.16"/><line class="cls-4" x1="77.5" y1="133.41" x2="30.83" y2="82.5"/><line class="cls-4" x1="77.5" y1="133.41" x2="19.24" y2="96.32"/><line class="cls-4" x1="77.5" y1="133.41" x2="11.63" y2="112.66"/><line class="cls-4" x1="77.5" y1="133.41" x2="8.5" y2="130.41"/><line class="cls-4" x1="77.5" y1="133.41" x2="10.07" y2="148.38"/><line class="cls-4" x1="77.5" y1="133.41" x2="16.24" y2="165.32"/><line class="cls-4" x1="77.5" y1="133.41" x2="26.59" y2="180.08"/><line class="cls-4" x1="77.5" y1="133.41" x2="40.4" y2="191.67"/><line class="cls-4" x1="77.5" y1="133.41" x2="56.74" y2="199.29"/><line class="cls-4" x1="77.5" y1="133.41" x2="74.5" y2="202.41"/><line class="cls-4" x1="77.5" y1="133.41" x2="92.46" y2="200.84"/><line class="cls-4" x1="77.5" y1="133.41" x2="109.4" y2="194.67"/><line class="cls-4" x1="77.5" y1="133.41" x2="124.17" y2="184.33"/><line class="cls-4" x1="77.5" y1="133.41" x2="135.76" y2="170.51"/><line class="cls-4" x1="77.5" y1="133.41" x2="143.37" y2="154.17"/><line class="cls-4" x1="77.5" y1="133.41" x2="146.5" y2="136.41"/><line class="cls-4" x1="77.5" y1="133.41" x2="144.93" y2="118.45"/><line class="cls-4" x1="77.5" y1="133.41" x2="138.76" y2="101.51"/><line class="cls-4" x1="77.5" y1="133.41" x2="128.41" y2="86.75"/><line class="cls-4" x1="77.5" y1="133.41" x2="114.6" y2="75.16"/><line class="cls-4" x1="77.5" y1="133.41" x2="98.26" y2="67.54"/><circle class="cls-1" cx="313" cy="133.91" r="76.5"/><circle class="cls-2" cx="313" cy="133.91" r="73"/><circle class="cls-3" cx="313" cy="133.91" r="70.5"/><line class="cls-4" x1="312.5" y1="134.41" x2="315.5" y2="65.41"/><line class="cls-4" x1="312.5" y1="134.41" x2="297.54" y2="66.99"/><line class="cls-4" x1="312.5" y1="134.41" x2="280.6" y2="73.16"/><line class="cls-4" x1="312.5" y1="134.41" x2="265.83" y2="83.5"/><line class="cls-4" x1="312.5" y1="134.41" x2="254.24" y2="97.32"/><line class="cls-4" x1="312.5" y1="134.41" x2="246.63" y2="113.66"/><line class="cls-4" x1="312.5" y1="134.41" x2="243.5" y2="131.41"/><line class="cls-4" x1="312.5" y1="134.41" x2="245.07" y2="149.38"/><line class="cls-4" x1="312.5" y1="134.41" x2="251.24" y2="166.32"/><line class="cls-4" x1="312.5" y1="134.41" x2="261.59" y2="181.08"/><line class="cls-4" x1="312.5" y1="134.41" x2="275.4" y2="192.67"/><line class="cls-4" x1="312.5" y1="134.41" x2="291.74" y2="200.29"/><line class="cls-4" x1="312.5" y1="134.41" x2="309.5" y2="203.41"/><line class="cls-4" x1="312.5" y1="134.41" x2="327.46" y2="201.84"/><line class="cls-4" x1="312.5" y1="134.41" x2="344.4" y2="195.67"/><line class="cls-4" x1="312.5" y1="134.41" x2="359.17" y2="185.33"/><line class="cls-4" x1="312.5" y1="134.41" x2="370.76" y2="171.51"/><line class="cls-4" x1="312.5" y1="134.41" x2="378.37" y2="155.17"/><line class="cls-4" x1="312.5" y1="134.41" x2="381.5" y2="137.41"/><line class="cls-4" x1="312.5" y1="134.41" x2="379.93" y2="119.45"/><line class="cls-4" x1="312.5" y1="134.41" x2="373.76" y2="102.51"/><line class="cls-4" x1="312.5" y1="134.41" x2="363.41" y2="87.75"/><line class="cls-4" x1="312.5" y1="134.41" x2="349.6" y2="76.16"/><line class="cls-4" x1="312.5" y1="134.41" x2="333.26" y2="68.54"/><circle class="cls-5" cx="312.75" cy="134.66" r="10.75"/><polyline class="cls-6" points="76.66 142.97 165.64 173.66 182.05 175.93 191.38 167.91 194.66 153.81 190.46 143.79 182.16 137.79 77.88 124.38 71.99 126.28 68.39 133.38 70.68 139.83 76.66 142.97"/><circle class="cls-7" cx="76.66" cy="133.38" r="10.41"/><path class="cls-8" d="M167.81,123s14.57-1.27,18.67-3.69c25.3-14.93,75.72-89.84,75.72-89.84l52.3,107"/><line class="cls-8" x1="271.3" y1="48.02" x2="178.54" y2="157.91"/><polyline class="cls-8" points="135.9 19.04 178.54 157.91 77.5 133.41 139.18 29.97"/><circle class="cls-9" cx="176.75" cy="156.66" r="21.5"/><circle class="cls-7" cx="176.75" cy="156.66" r="17"/><path d="M203.31,170.24s-20.8-13.32-21.44-13.67c-2.5-1.33-5.49-.41-6.37,1.64s.54,4.61,3.17,5.75l23,10a2.36,2.36,0,0,0,3.19-.82C205.34,172.09,204.4,170.9,203.31,170.24Z"/><line class="cls-8" x1="262.2" y1="29.43" x2="249.59" y2="3.37"/><line class="cls-10" x1="252.95" y1="3" x2="228.25" y2="3"/><rect class="cls-9" x="193.15" y="170.96" width="22.2" height="5.41" transform="translate(-20.78 27.93) rotate(-7.45)"/><path d="M159.55,11.06s-42.34-8.89-43.61-9c-4.89-.52-9,4-9,9a9,9,0,0,0,9,9h43.61a4.51,4.51,0,0,0,4.51-4.51C164.06,13.08,161.73,11.46,159.55,11.06Z"/></svg>
