<svg id="Layer_1" data-name="Layer 1" xmlns="http://www.w3.org/2000/svg" viewBox="0 0 436.3 213.92"><defs><style>.cls-1,.cls-2,.cls-3,.cls-4,.cls-5,.cls-7,.cls-8,.cls-9{fill:none;}.cls-1,.cls-3{stroke:#000;}.cls-1,.cls-7,.cls-8{stroke-linecap:round;}.cls-1,.cls-2,.cls-3,.cls-4,.cls-5{stroke-miterlimit:10;}.cls-1,.cls-2,.cls-8,.cls-9{stroke-width:9px;}.cls-2,.cls-4,.cls-5{stroke:#c1c1c1;}.cls-3{stroke-width:8px;}.cls-4{stroke-width:4px;}.cls-5,.cls-7{stroke-width:2px;}.cls-6{fill:#adaca8;}.cls-7{stroke:#4c4c4c;}.cls-7,.cls-8,.cls-9{stroke-linejoin:round;}.cls-8,.cls-9{stroke:#434344;}.cls-10{fill:#848484;}.cls-11{fill:#9d9d9e;}</style></defs><title>Artboard 5</title><path class="cls-1" d="M272.45,13.54c-2,10.61-21.38,12.74-21.38,12.74"/><path class="cls-2" d="M295.23,8.8s-1.67-6.35-12.7-3.62C275.14,7,274,7.65,272.45,13.54"/><circle class="cls-3" cx="80.5" cy="133.14" r="67.61"/><circle class="cls-4" cx="80.5" cy="133.14" r="62.3"/><line class="cls-5" x1="80.06" y1="133.58" x2="82.71" y2="72.6"/><line class="cls-5" x1="80.06" y1="133.58" x2="66.84" y2="73.99"/><line class="cls-5" x1="80.06" y1="133.58" x2="51.86" y2="79.44"/><line class="cls-5" x1="80.06" y1="133.58" x2="38.81" y2="88.59"/><line class="cls-5" x1="80.06" y1="133.58" x2="28.57" y2="100.79"/><line class="cls-5" x1="80.06" y1="133.58" x2="21.84" y2="115.24"/><line class="cls-5" x1="80.06" y1="133.58" x2="19.08" y2="130.93"/><line class="cls-5" x1="80.06" y1="133.58" x2="20.47" y2="146.8"/><line class="cls-5" x1="80.06" y1="133.58" x2="25.92" y2="161.77"/><line class="cls-5" x1="80.06" y1="133.58" x2="35.07" y2="174.82"/><line class="cls-5" x1="80.06" y1="133.58" x2="47.27" y2="185.06"/><line class="cls-5" x1="80.06" y1="133.58" x2="61.71" y2="191.79"/><line class="cls-5" x1="80.06" y1="133.58" x2="77.41" y2="194.56"/><line class="cls-5" x1="80.06" y1="133.58" x2="93.28" y2="193.17"/><line class="cls-5" x1="80.06" y1="133.58" x2="108.25" y2="187.71"/><line class="cls-5" x1="80.06" y1="133.58" x2="121.3" y2="178.57"/><line class="cls-5" x1="80.06" y1="133.58" x2="131.54" y2="166.36"/><line class="cls-5" x1="80.06" y1="133.58" x2="138.27" y2="151.92"/><line class="cls-5" x1="80.06" y1="133.58" x2="141.04" y2="136.23"/><line class="cls-5" x1="80.06" y1="133.58" x2="139.64" y2="120.36"/><line class="cls-5" x1="80.06" y1="133.58" x2="134.19" y2="105.39"/><line class="cls-5" x1="80.06" y1="133.58" x2="125.05" y2="92.33"/><line class="cls-5" x1="80.06" y1="133.58" x2="112.84" y2="82.1"/><line class="cls-5" x1="80.06" y1="133.58" x2="98.4" y2="75.36"/><circle class="cls-6" cx="80.28" cy="133.8" r="9.5"/><polygon class="cls-7" points="15.57 38.45 30 115.5 121.44 115.5 138.83 38.45 15.57 38.45"/><line class="cls-7" x1="40.43" y1="114.26" x2="30.5" y2="38.45"/><line class="cls-7" x1="48.52" y1="115.5" x2="45.23" y2="38.45"/><line class="cls-7" x1="57.08" y1="115.5" x2="57.08" y2="38.45"/><line class="cls-7" x1="67.96" y1="115.5" x2="67.96" y2="38.45"/><line class="cls-7" x1="79.63" y1="115.5" x2="79.63" y2="38.45"/><line class="cls-7" x1="91.04" y1="115.5" x2="91.04" y2="38.45"/><line class="cls-7" x1="103.74" y1="115.5" x2="106.14" y2="38.45"/><line class="cls-7" x1="112.15" y1="115.38" x2="122.66" y2="38.45"/><line class="cls-7" x1="17.2" y1="47.15" x2="136.87" y2="47.15"/><line class="cls-7" x1="19.1" y1="57.33" x2="134.57" y2="57.33"/><line class="cls-7" x1="21.23" y1="68.66" x2="132.01" y2="68.66"/><line class="cls-7" x1="23.14" y1="78.9" x2="129.27" y2="78.9"/><line class="cls-7" x1="25.08" y1="89.23" x2="128.09" y2="89.23"/><line class="cls-7" x1="27.04" y1="99.73" x2="125" y2="99.73"/><circle class="cls-3" cx="355.8" cy="133.22" r="76.5"/><circle class="cls-4" cx="355.8" cy="133.22" r="70.5"/><line class="cls-5" x1="355.3" y1="133.72" x2="358.3" y2="64.72"/><line class="cls-5" x1="355.3" y1="133.72" x2="340.34" y2="66.29"/><line class="cls-5" x1="355.3" y1="133.72" x2="323.39" y2="72.46"/><line class="cls-5" x1="355.3" y1="133.72" x2="308.63" y2="82.8"/><line class="cls-5" x1="355.3" y1="133.72" x2="297.04" y2="96.62"/><line class="cls-5" x1="355.3" y1="133.72" x2="289.42" y2="112.96"/><line class="cls-5" x1="355.3" y1="133.72" x2="286.3" y2="130.72"/><line class="cls-5" x1="355.3" y1="133.72" x2="287.87" y2="148.68"/><line class="cls-5" x1="355.3" y1="133.72" x2="294.04" y2="165.62"/><line class="cls-5" x1="355.3" y1="133.72" x2="304.38" y2="180.39"/><line class="cls-5" x1="355.3" y1="133.72" x2="318.2" y2="191.97"/><line class="cls-5" x1="355.3" y1="133.72" x2="334.54" y2="199.59"/><line class="cls-5" x1="355.3" y1="133.72" x2="352.3" y2="202.72"/><line class="cls-5" x1="355.3" y1="133.72" x2="370.26" y2="201.14"/><line class="cls-5" x1="355.3" y1="133.72" x2="387.2" y2="194.97"/><line class="cls-5" x1="355.3" y1="133.72" x2="401.97" y2="184.63"/><line class="cls-5" x1="355.3" y1="133.72" x2="413.55" y2="170.81"/><line class="cls-5" x1="355.3" y1="133.72" x2="421.17" y2="154.47"/><line class="cls-5" x1="355.3" y1="133.72" x2="424.3" y2="136.72"/><line class="cls-5" x1="355.3" y1="133.72" x2="422.72" y2="118.76"/><line class="cls-5" x1="355.3" y1="133.72" x2="416.55" y2="101.81"/><line class="cls-5" x1="355.3" y1="133.72" x2="406.21" y2="87.05"/><line class="cls-5" x1="355.3" y1="133.72" x2="392.39" y2="75.46"/><line class="cls-5" x1="355.3" y1="133.72" x2="376.05" y2="67.84"/><circle class="cls-6" cx="355.55" cy="133.97" r="10.75"/><polyline class="cls-7" points="158.19 112.96 78.13 124.87 71.37 130.81 70.89 136.43 72.84 139.35 76.05 141.97"/><polyline class="cls-7" points="169.02 137.65 211.66 141.16 228.45 141.95 237.6 136.87 240.73 122.77 236.72 112.75 228.04 108.09 158.19 112.96"/><line class="cls-7" x1="76.05" y1="126.67" x2="169.55" y2="137.65"/><line class="cls-8" x1="307.3" y1="33.73" x2="356.58" y2="134.53"/><polyline class="cls-9" points="164.26 30.02 220.18 139.12 80 138.72 182.46 68.62"/><line class="cls-9" x1="307.3" y1="33.73" x2="294.68" y2="7.68"/><circle class="cls-3" cx="80.5" cy="133.42" r="76.5"/><circle class="cls-4" cx="80.5" cy="133.42" r="70.5"/><line class="cls-5" x1="80" y1="133.92" x2="83" y2="64.92"/><line class="cls-5" x1="80" y1="133.92" x2="65.04" y2="66.5"/><line class="cls-5" x1="80" y1="133.92" x2="48.1" y2="72.67"/><line class="cls-5" x1="80" y1="133.92" x2="33.33" y2="83.01"/><line class="cls-5" x1="80" y1="133.92" x2="21.74" y2="96.82"/><line class="cls-5" x1="80" y1="133.92" x2="14.13" y2="113.17"/><line class="cls-5" x1="80" y1="133.92" x2="11" y2="130.92"/><line class="cls-5" x1="80" y1="133.92" x2="12.57" y2="148.88"/><line class="cls-5" x1="80" y1="133.92" x2="18.74" y2="165.82"/><line class="cls-5" x1="80" y1="133.92" x2="29.09" y2="180.59"/><line class="cls-5" x1="80" y1="133.92" x2="42.9" y2="192.18"/><line class="cls-5" x1="80" y1="133.92" x2="59.24" y2="199.79"/><line class="cls-5" x1="80" y1="133.92" x2="77" y2="202.92"/><line class="cls-5" x1="80" y1="133.92" x2="94.96" y2="201.35"/><line class="cls-5" x1="80" y1="133.92" x2="111.9" y2="195.18"/><line class="cls-5" x1="80" y1="133.92" x2="126.67" y2="184.83"/><line class="cls-5" x1="80" y1="133.92" x2="138.26" y2="171.02"/><line class="cls-5" x1="80" y1="133.92" x2="145.87" y2="154.68"/><line class="cls-5" x1="80" y1="133.92" x2="149" y2="136.92"/><line class="cls-5" x1="80" y1="133.92" x2="147.43" y2="118.96"/><line class="cls-5" x1="80" y1="133.92" x2="141.26" y2="102.02"/><line class="cls-5" x1="80" y1="133.92" x2="130.91" y2="87.25"/><line class="cls-5" x1="80" y1="133.92" x2="117.1" y2="75.67"/><line class="cls-5" x1="80" y1="133.92" x2="100.76" y2="68.05"/><circle class="cls-6" cx="80.25" cy="134.17" r="10.75"/><path class="cls-9" d="M314.57,52.32s-15.79,4.94-30.73,22.43c-24.7,28.91-23.33,63.91-23.33,63.91H216.25"/><circle class="cls-10" cx="222.43" cy="124.81" r="19.74"/><circle class="cls-11" cx="222.43" cy="124.81" r="15.61"/><path d="M239.16,153.75S229,127.2,228.59,126.44c-1.41-2.94-4.81-4.12-7-2.83s-2.65,4.65-1,7.51l14.59,25c.83,1.43,2.4,2.06,3.51,1.42S239.72,155.1,239.16,153.75Z"/><rect class="cls-10" x="227.28" y="153.37" width="22.2" height="5.41" transform="translate(-18.22 32.21) rotate(-7.45)"/><path d="M190.71,24.41s-42.34-8.89-43.61-9c-4.89-.51-9,4-9,9a9,9,0,0,0,9,9h43.61a4.51,4.51,0,0,0,4.51-4.51C195.22,26.43,192.89,24.8,190.71,24.41Z"/></svg>
